HIERARCHY
ROOT Hips
{
  OFFSET 57.8838 95.319 338.509
  CHANNELS 6 Xposition Yposition Zposition Zrotation Xrotation Yrotation
  JOINT LeftUpLeg
  {
    OFFSET 8.64259 1.95398 -2.38835
    CHANNELS 3 Zrotation Xrotation Yrotation
    JOINT LeftLeg
    {
      OFFSET 43.7702 0 0
      CHANNELS 3 Zrotation Xrotation Yrotation
      JOINT LeftFoot
      {
        OFFSET 40.6238 0 0
        CHANNELS 3 Zrotation Xrotation Yrotation
        JOINT LeftToeBase
        {
          OFFSET 12.7242 0 0
          CHANNELS 3 Zrotation Xrotation Yrotation
          End Site
          {
            OFFSET 0 0 0
          }
        }
      }
    }
  }
  JOINT RightUpLeg
  {
    OFFSET -8.2249 1.95398 -2.59336
    CHANNELS 3 Zrotation Xrotation Yrotation
    JOINT RightLeg
    {
      OFFSET 43.5653 0 0
      CHANNELS 3 Zrotation Xrotation Yrotation
      JOINT RightFoot
      {
        OFFSET 40.6238 0 0
        CHANNELS 3 Zrotation Xrotation Yrotation
        JOINT RightToeBase
        {
          OFFSET 12.7242 0 0
          CHANNELS 3 Zrotation Xrotation Yrotation
          End Site
          {
            OFFSET 0 0 0
          }
        }
      }
    }
  }
  JOINT Spine
  {
    OFFSET 0.165834 0.87714 6.61349
    CHANNELS 3 Zrotation Xrotation Yrotation
    JOINT Spine1
    {
      OFFSET 7.38963 1.71661e-005 0
      CHANNELS 3 Zrotation Xrotation Yrotation
      JOINT Spine2
      {
        OFFSET 11.9445 1.14441e-005 0
        CHANNELS 3 Zrotation Xrotation Yrotation
        JOINT Spine3
        {
          OFFSET 14.7254 4.19617e-005 0
          CHANNELS 3 Zrotation Xrotation Yrotation
          JOINT Spine4
          {
            OFFSET 10.9679 0 0
            CHANNELS 3 Zrotation Xrotation Yrotation
            JOINT RightShoulder
            {
              OFFSET 2.46616 -1.6653 3.69651
              CHANNELS 3 Zrotation Xrotation Yrotation
              JOINT RightArm
              {
                OFFSET 13.0012 0 0
                CHANNELS 3 Zrotation Xrotation Yrotation
                JOINT RightForeArm
                {
                  OFFSET 28.7848 1.62311e-005 0
                  CHANNELS 3 Zrotation Xrotation Yrotation
                  JOINT RightHand
                  {
                    OFFSET 26.5688 1.62095e-005 0
                    CHANNELS 3 Zrotation Xrotation Yrotation
                    End Site
                    {
                      OFFSET 0 0 0
                    }
                  }
                }
              }
            }
            JOINT LeftShoulder
            {
              OFFSET 2.38034 -1.29275 -3.7523
              CHANNELS 3 Zrotation Xrotation Yrotation
              JOINT LeftArm
              {
                OFFSET 16.3182 6.07031e-005 0
                CHANNELS 3 Zrotation Xrotation Yrotation
                JOINT LeftForeArm
                {
                  OFFSET 27.0901 0 0
                  CHANNELS 3 Zrotation Xrotation Yrotation
                  JOINT LeftHand
                  {
                    OFFSET 24.5451 1.51738e-005 0
                    CHANNELS 3 Zrotation Xrotation Yrotation
                    End Site
                    {
                      OFFSET 0 0 0
                    }
                  }
                }
              }
            }
            JOINT Neck
            {
              OFFSET 5.0226 -0.0266342 0
              CHANNELS 3 Zrotation Xrotation Yrotation
              JOINT Head
              {
                OFFSET 6.69364 2.86102e-005 0
                CHANNELS 3 Zrotation Xrotation Yrotation
                End Site
                {
                  OFFSET 0 0 0
                }
              }
            }
          }
        }
      }
    }
  }
}
MOTION
Frames:	15
Frame Time:	0.0416667
-324.873 85.8075 -286.133 -91.2669 36.8656 -92.2282 -165.436 10.3849 101.051 -55.4076 14.3553 -3.36417 51.4038 -15.1287 -12.9774 158.756 44.0491 -20.8425 177.931 28.6784 83.0263 52.6324 71.1859 -130.213 47.649 31.8267 -8.91014 31.3814 1.25596 -105.594 -14.1125 7.04248 -102.073 9.22935 -33.4717 -21.6775 -2.1241 -34.3716 -20.0923 -25.5401 -25.6847 -30.6656 -5.52746 -25.6847 -30.6656 -12.4281 -41.3745 138.629 167.109 -22.5536 -55.1986 30.1718 -26.4903 -115 92.1925 59.5221 52.0524 178.586 -57.0653 -24.067 -38.8853 25.0136 -92.1429 20.1333 52.0632 -37.475 3.14452 -3.25788 -64.0684 21.9584 -41.5641 -25.1224 10.5765 -36.5329 -40.8587 
-325.185 85.5912 -286.546 -91.0305 36.8084 -91.9615 -165.158 10.6466 101.743 -55.6939 14.3866 -3.1627 51.0793 -15.3705 -13.4888 160.952 42.6408 -22.6923 178.142 29.4841 83.3503 52.0575 71.5118 -129.646 47.5686 31.8755 -9.24406 31.4294 1.41428 -105.686 -14.1102 7.07827 -102.081 9.14346 -33.464 -21.7258 -2.21097 -34.3656 -20.1415 -25.6168 -25.6651 -30.7056 -5.60413 -25.6651 -30.7056 -12.8574 -41.8236 138.548 167.444 -22.1084 -54.9052 29.4148 -26.4037 -115.383 93.1308 59.0639 50.8246 178.817 -56.4726 -24.1837 -38.4778 24.4845 -92.3928 19.2511 51.6771 -36.7953 3.17601 -3.25227 -63.6993 21.663 -41.6817 -25.2536 10.7756 -36.6858 -40.552 
-326.127 84.912 -287.792 -90.3117 36.6346 -91.144 -164.349 11.4656 103.841 -56.5299 14.5989 -2.54688 50.1239 -16.026 -14.9601 166.352 38.3735 -27.2484 178.74 31.9306 84.2811 49.8007 72.6029 -127.394 47.19 32.2006 -10.167 31.6343 2.08614 -106.023 -14.1037 7.18805 -102.104 8.87959 -33.4424 -21.8751 -2.47827 -34.3501 -20.2935 -25.8521 -25.6061 -30.8297 -5.83939 -25.6061 -30.8297 -14.2163 -43.2012 138.256 168.42 -20.7419 -54.0384 27.1417 -26.0702 -116.536 95.6657 57.604 47.3724 179.456 -54.7425 -24.5641 -37.2153 22.9226 -93.0972 16.6523 50.4276 -34.87 3.30855 -3.25248 -62.5429 20.7617 -42.0353 -25.6603 11.3712 -37.1437 -39.6262 
-327.591 83.7856 -289.716 -89.1984 36.3654 -89.7817 -163.175 12.8258 107.175 -57.7599 15.3047 -1.56195 48.7279 -16.8343 -17.0236 172.074 32.0365 -32.1445 179.534 35.7274 85.6369 43.8207 74.6494 -121.356 46.0889 33.3633 -11.205 32.1978 3.88524 -106.792 -14.0975 7.36981 -102.143 8.44203 -33.4149 -22.1203 -2.92131 -34.3327 -20.5426 -26.2436 -25.5168 -31.036 -6.23092 -25.5168 -31.036 -16.5298 -45.3991 137.643 169.831 -18.5546 -52.7461 23.6874 -25.3655 -118.281 98.7025 55.163 42.7705 -179.692 -52.1903 -25.2243 -35.0766 20.5604 -94.0642 12.8054 48.1904 -32.2759 3.63559 -3.30277 -60.6039 19.332 -42.5792 -26.3212 12.2767 -37.8455 -38.2069 
-329.488 82.231 -292.181 -87.8207 36.011 -87.7141 -161.819 14.7477 111.746 -59.2627 16.9136 -0.216248 47.1105 -17.5364 -19.2946 176.543 24.6953 -36.2064 -179.761 40.502 87.3811 26.1686 77.6626 -103.497 43.3097 36.373 -11.1959 33.655 8.2704 -108.402 -11.845 2.6736 -97.9527 20.9513 -27.4294 -10.1341 9.56629 -27.8465 -8.83032 -14.5179 -23.1017 -18.2101 5.49475 -23.1017 -18.2102 37.4506 2.79625 137.742 35.8125 -23.7667 158.709 10.7746 -17.8954 -120.582 102.315 51.9072 37.2954 160.249 -46.4506 -44.0565 -75.7318 15.6246 -33.5012 8.73284 59.3966 -33.6592 5.15584 -3.92569 -58.2869 11.4826 -67.9279 -12.9175 24.8997 -65.5994 -33.4133 
-331.73 80.3082 -295.021 -86.2997 35.5591 -84.8596 -160.548 17.2231 117.476 -60.8927 19.6683 1.44719 45.4597 -17.9567 -21.4638 179.445 17.0931 -39.363 -179.458 45.8239 89.4219 -25.1478 76.9686 -51.6533 36.2029 42.1276 -6.02984 37.9808 19.3285 -112.419 -12.0808 3.15485 -98.3691 19.67 -28.0653 -11.2126 8.29308 -28.527 -9.87727 -15.783 -23.4006 -19.4138 4.22965 -23.4006 -19.4138 30.1275 -5.85628 142.808 32.9324 -43.0232 161.366 8.29986 -20.4882 -122.414 102.408 47.9617 33.8775 161.214 -45.3314 -43.8099 -74.1669 19.4061 -37.2923 1.76593 56.4655 -28.9928 6.48864 -4.25729 -54.6677 6.4571 -67.6486 -18.053 25.3445 -65.0174 -31.3299 
-334.232 77.9924 -298.058 -84.6678 35.0019 -81.4659 -159.733 20.1614 124.043 -62.6943 23.4562 3.29823 44.0544 -18.065 -23.3613 -179.089 9.27733 -41.9936 179.667 51.535 92.3335 -65.234 53.1683 -9.83913 24.0736 41.6247 12.3122 54.2868 43.0447 -129.282 -12.182 3.43533 -98.4891 19.0122 -28.3223 -11.6228 7.6386 -28.8015 -10.2744 -16.4314 -23.5279 -19.8771 3.58121 -23.5279 -19.8771 23.2845 -15.3579 146.986 34.3452 -56.6921 163.573 4.88078 -20.5338 -125.016 101.039 43.9215 31.2995 161.061 -43.7706 -44.6009 -72.2805 20.6115 -37.7682 -4.85734 52.6609 -26.2559 8.65534 -4.73622 -49.9454 1.13652 -68.944 -22.3 26.6556 -66.3567 -29.165 
-336.92 74.8362 -301.152 -82.9276 34.3486 -77.8688 -159.98 23.4766 131.347 -65.6236 27.9952 5.25953 43.7262 -17.9232 -24.8152 -179.023 0.874489 -44.5575 176.009 55.2896 98.2074 -72.1484 5.44213 1.60747 37.2706 23.0729 11.1735 48.8537 -35.0655 -16.7757 -12.299 3.73754 -98.6269 18.2973 -28.6167 -12.085 6.92748 -29.1156 -10.7216 -17.1355 -23.6764 -20.4001 2.87721 -23.6764 -20.4001 10.9824 -30.621 149.53 46.0491 -73.996 178.28 1.42951 -17.2164 -127.792 98.157 40.1195 29.6999 160.999 -42.2054 -45.327 -67.5834 25.2364 -38.71 -9.51032 44.9565 -27.7912 11.7497 -5.16252 -43.7231 -4.98041 -70.1542 -27.351 27.8196 -67.7724 -27.2069 
-339.684 70.4852 -304.429 -81.0973 33.6178 -74.32 -161.695 26.5982 139.617 -69.9284 33.0227 7.3233 44.8534 -17.6856 -25.8947 179.452 -8.42425 -47.5351 175.323 57.0131 98.9734 -66.7792 -23.971 6.54777 46.7381 11.141 1.51038 40.8763 -23.451 -22.1875 -12.4225 4.0381 -98.7703 17.5805 -28.9236 -12.5613 6.21457 -29.4426 -11.1824 -17.8404 -23.8331 -20.9398 2.17228 -23.833 -20.9397 -14.3335 -52.3202 142.599 164.374 -76.2393 -57.7556 -1.03407 -11.8685 -129.503 93.8242 36.6828 29.0391 161.033 -40.7051 -45.9569 -52.3886 40.1946 -43.2845 -8.59652 23.6889 -40.5716 15.6295 -5.07723 -35.0157 -11.9361 -71.2078 -33.2608 28.7459 -69.2577 -25.64 
-342.595 65.6843 -307.915 -79.2121 32.8344 -70.991 -163.871 28.6042 148.215 -73.4763 38.1801 9.37524 46.3081 -17.5066 -26.9733 175.941 -18.5856 -51.5103 175.581 58.7176 97.7414 -56.185 -35.2403 9.69925 47.5424 9.68647 0.330414 37.3665 -18.3443 -27.7605 -12.5481 4.3219 -98.9055 16.8999 -29.2281 -13.0137 5.53799 -29.7663 -11.6193 -18.5105 -23.9948 -21.4562 1.50214 -23.9948 -21.4562 -88.2993 -66.0272 89.9881 -176.652 -42.6681 -30.5119 -2.32792 -6.89826 -129.188 88.2194 33.6043 29.186 161.146 -39.3633 -46.4647 62.4726 53.4632 -125.441 0.978069 -38.7021 -52.5468 23.4569 -4.4931 -23.3814 -19.812 -72.0165 -40.0888 29.3117 -70.8092 -24.672 
-345.679 60.8593 -311.525 -77.3175 32.0218 -67.9906 -165.509 29.4713 156.368 -75.3229 43.2525 11.3576 47.5831 -17.5297 -28.2338 169.859 -29.0686 -57.2347 175.818 58.693 96.5454 -42.2719 -39.6285 10.9714 44.9785 13.7417 3.47845 35.9298 -16.1304 -31.0373 -12.6752 4.58171 -99.0202 16.277 -29.524 -13.4105 4.91938 -30.079 -12.0009 -19.1275 -24.1643 -21.9189 0.885131 -24.1643 -21.9189 -151.303 -43.9801 50.2301 -177.778 -6.34051 -21.1768 -4.05248 -2.67454 -127.234 81.8311 30.8535 29.8976 161.317 -38.2797 -46.8233 142.651 -21.0486 -133.982 -123.495 13.6242 -177.617 37.0872 -3.71895 -17.886 -28.5628 -72.4733 -47.7568 29.3309 -72.416 -24.5492 
-348.882 56.2111 -315.185 -75.4604 31.1982 -65.3719 -166.009 29.6465 163.534 -75.1846 48.1072 13.2504 48.4681 -17.9039 -29.7804 160.536 -38.8104 -65.5858 176.51 54.1771 95.949 -22.9664 -40.7928 8.20284 38.0896 21.905 10.7518 35.2935 -15.3342 -33.4347 -12.8048 4.81581 -99.1054 15.7196 -29.8093 -13.7304 4.36672 -30.3776 -12.3059 -19.6864 -24.3453 -22.3079 0.326207 -24.3454 -22.308 -178.003 -18.3351 47.386 177.857 24.3614 -13.5362 -6.43021 0.133911 -125.207 75.1163 28.3831 30.9711 161.519 -37.5369 -47.0136 -176.664 -38.3899 -105.808 -156.834 43.5247 179.953 46.1625 -2.33329 -11.978 -37.8964 -72.4787 -55.9441 28.5347 -74.0587 -25.5665 
-352.117 51.8906 -318.82 -73.6826 30.3783 -63.1498 -165.155 29.6435 169.429 -72.9186 52.6428 14.9815 48.7895 -18.747 -31.7042 147.637 -46.4979 -77.1206 177.625 45.1196 96.4922 0.261092 -40.7672 0.0476119 25.215 31.173 23.8684 35.0165 -15.2489 -35.3216 -12.9368 5.02589 -99.1546 15.2276 -30.0824 -13.96 3.88028 -30.6603 -12.5208 -20.1892 -24.5404 -22.6111 -0.176547 -24.5404 -22.6111 162.223 0.177933 51.3901 171.519 50.0315 -5.7254 -8.04416 -0.117603 -123.894 68.4126 26.1102 32.2124 161.715 -37.1972 -47.0313 -164.58 -39.4543 -96.7543 -167.978 48.4297 179.973 53.3668 0.495042 -5.34877 -47.318 -71.9695 -64.1336 26.5355 -75.7072 -28.1126 
-355.28 48.0122 -322.341 -72.0187 29.5726 -61.3197 -162.995 29.8415 173.948 -68.3874 56.7902 16.354 48.3934 -20.1198 -34.0972 132.183 -51.0965 -91.0213 176.499 49.7706 95.3588 -1.29337 -40.8636 0.68313 26.9677 32.9812 24.8214 34.9063 -15.5037 -36.8557 -13.2168 5.23741 -99.1148 14.7667 -30.6042 -13.9662 3.43517 -31.1816 -12.4965 -20.7295 -25.033 -22.8031 -0.716847 -25.033 -22.8031 150.94 15.9617 50.6034 119.744 81.7291 44.5756 -0.968963 -19.5133 -122.553 60.9492 23.7166 33.7903 163.899 -38.3772 -45.3061 -168.482 -37.3063 -98.3642 -168.878 53.5931 179.973 59.6632 3.40374 -0.223471 -92.0279 -72.1544 -104.098 71.1474 -78.8153 19.8447 
-358.254 44.6592 -325.642 -70.4962 28.7873 -59.8674 -159.657 30.4004 177.071 -61.3105 60.5103 16.9683 47.1257 -22.024 -37.0664 116.993 -52.5613 -104.66 175.918 52.7521 94.0677 -1.34491 -40.4603 0.77987 27.4162 34.7565 26.2192 34.8694 -15.8887 -38.1151 -11.3676 5.07637 -99.7366 14.9194 -27.2594 -15.6522 3.47413 -27.9135 -14.3795 -19.8978 -21.3928 -23.1692 0.114889 -21.3928 -23.1692 54.7765 -14.9012 137.977 34.8951 38.8551 139.137 -32.4382 44.9973 -121.87 60.0044 21.772 31.3697 139.517 -23.5692 -64.2464 -75.0377 -33.6422 -33.1231 141.155 33.3385 -179.939 64.9063 7.48919 4.96006 66.4792 41.5441 -42.382 24.9825 51.0444 -103.947 
